<svg width="357" height="259" viewBox="0 0 357 259" fill="none" xmlns="http://www.w3.org/2000/svg">
<g clip-path="url(#clip0_2_2)">
<path d="M273.328 256.071C268.757 251.385 265.981 243.981 266.709 236.774C267.437 229.567 271.946 222.941 277.796 221.411C283.645 219.88 290.313 224.117 292.09 231.05C293.067 217.682 294.194 203.754 300.051 192.37C305.354 182.062 314.54 174.686 324.495 173.367C334.45 172.047 344.931 177.031 351.14 186.566C357.348 196.101 358.868 209.962 354.52 220.909C351.317 228.973 345.415 234.974 339.232 239.856C319.251 255.5 295.287 261.862 271.749 257.771L273.328 256.071Z" fill="#F2F2F2"/>
<path d="M341.295 177.307C333.081 185.426 325.546 194.506 318.798 204.417C308.237 219.873 299.691 237.203 293.458 255.801C293.002 257.158 294.817 257.749 295.269 256.407C305.467 226.18 321.748 199.538 342.623 178.919C343.56 177.992 342.225 176.389 341.295 177.307Z" fill="white"/>
<path d="M114.924 254.798C121.202 248.361 125.015 238.192 124.015 228.293C123.015 218.394 116.821 209.294 108.787 207.191C100.753 205.089 91.5947 210.908 89.1545 220.432C87.8116 202.071 86.264 182.941 78.2195 167.305C70.9354 153.147 58.3192 143.016 44.646 141.204C30.9729 139.391 16.5768 146.236 8.04935 159.332C-0.478091 172.428 -2.566 191.467 3.4064 206.502C7.80605 217.578 15.9118 225.821 24.4045 232.527C51.4994 253.921 85.1106 262.844 117.092 257.132" fill="#F2F2F2"/>
<path d="M21.5705 146.616C32.8525 157.767 43.2026 170.238 52.471 183.85C61.7409 197.448 69.902 212.105 76.8398 227.615C80.7177 236.315 84.2013 245.266 87.275 254.427C87.9017 256.291 85.4079 257.102 84.7882 255.259C79.3438 239.108 72.6081 223.643 64.6776 209.086C56.7856 194.582 47.7529 181.042 37.7062 168.654C32.0237 161.651 26.0282 155.033 19.7469 148.829C18.4594 147.556 20.2936 145.354 21.5705 146.616Z" fill="white"/>
<path d="M256.26 258.433H106.484V71.9529C106.484 32.2779 133.084 0 165.779 0H196.966C229.661 0 256.26 32.2779 256.26 71.9529V258.433Z" fill="#F2F2F2"/>
<path d="M225.074 258.433H106.484V71.953C106.452 56.7504 110.419 41.932 117.808 29.6554C118.081 29.2049 118.352 28.7602 118.633 28.3203C122.207 22.6319 126.46 17.6221 131.252 13.4564C131.523 13.2174 131.795 12.9826 132.071 12.7477C136.081 9.38029 140.418 6.62752 144.985 4.55202C145.256 4.42729 145.532 4.30231 145.808 4.18244C149.939 2.39386 154.22 1.1687 158.574 0.529561C158.844 0.48482 159.121 0.44981 159.398 0.4148C163.64 -0.135662 167.919 -0.135662 172.162 0.4148C172.438 0.44981 172.715 0.484816 172.988 0.530039C177.341 1.16922 181.621 2.39423 185.75 4.18246C186.026 4.30233 186.302 4.4273 186.574 4.55227C191.085 6.60159 195.371 9.31329 199.339 12.6268C199.614 12.8566 199.89 13.0915 200.162 13.3264C202.848 15.6531 205.371 18.2453 207.706 21.0764C209.578 23.3472 211.322 25.7678 212.927 28.3218C213.206 28.7602 213.478 29.2049 213.75 29.6547C221.14 41.9315 225.107 56.7501 225.074 71.953V258.433Z" fill="#CCCCCC"/>
<path d="M215.431 175.027C219.057 175.027 221.997 171.46 221.997 167.06C221.997 162.66 219.057 159.093 215.431 159.093C211.805 159.093 208.865 162.66 208.865 167.06C208.865 171.46 211.805 175.027 215.431 175.027Z" fill="#6C63FF"/>
<path d="M243.991 252.848H238.96L236.566 229.301L243.991 229.301L243.991 252.848Z" fill="#FFB8B8"/>
<path d="M235.366 251.103H245.068V258.516H229.258C229.258 257.543 229.416 256.579 229.723 255.679C230.03 254.78 230.479 253.963 231.047 253.274C231.614 252.586 232.287 252.04 233.029 251.667C233.77 251.295 234.564 251.103 235.366 251.103Z" fill="#2F2E41"/>
<path d="M269.022 252.848H263.991L261.597 229.301L269.022 229.301L269.022 252.848Z" fill="#FFB8B8"/>
<path d="M260.397 251.103H270.099V258.516H254.289C254.289 257.543 254.447 256.579 254.754 255.679C255.061 254.78 255.511 253.963 256.078 253.274C256.645 252.586 257.318 252.04 258.06 251.667C258.801 251.295 259.595 251.103 260.397 251.103Z" fill="#2F2E41"/>
<path d="M218.754 168.639C218.392 167.992 218.151 167.256 218.049 166.484C217.947 165.712 217.985 164.922 218.162 164.17C218.338 163.418 218.648 162.722 219.07 162.131C219.492 161.54 220.016 161.068 220.605 160.75L237.706 103.552L246.121 109.125L226.595 163.785C226.971 165.02 226.96 166.38 226.565 167.606C226.17 168.832 225.418 169.84 224.451 170.438C223.485 171.036 222.371 171.184 221.321 170.852C220.271 170.52 219.357 169.733 218.754 168.639Z" fill="#FFB8B8"/>
<path d="M266.452 179.386C265.893 178.997 265.411 178.464 265.04 177.825C264.669 177.185 264.418 176.455 264.305 175.685C264.192 174.915 264.219 174.125 264.385 173.369C264.551 172.613 264.851 171.911 265.265 171.311L259.967 110.806L269.543 111.337L271.745 170.852C272.529 171.762 273.011 172.99 273.099 174.302C273.187 175.614 272.875 176.92 272.222 177.972C271.57 179.024 270.622 179.749 269.559 180.01C268.495 180.27 267.39 180.048 266.452 179.386Z" fill="#FFB8B8"/>
<path d="M251.174 92.958C256.741 92.958 261.253 87.4824 261.253 80.728C261.253 73.9735 256.741 68.498 251.174 68.498C245.608 68.498 241.096 73.9735 241.096 80.728C241.096 87.4824 245.608 92.958 251.174 92.958Z" fill="#FFB8B8"/>
<path d="M266.388 165.626H236.003L236.039 165.339C236.094 164.91 241.455 122.297 237.501 108.356C237.104 106.986 237.139 105.486 237.599 104.146C238.059 102.805 238.911 101.718 239.991 101.094C245.643 97.8648 256.49 93.8883 265.646 103.539C266.994 104.982 268.046 106.786 268.719 108.808C269.393 110.83 269.67 113.014 269.528 115.189L266.388 165.626Z" fill="#6C63FF"/>
<path d="M241.839 128.594L228.159 125.227L234.571 106.788C234.955 105.002 235.907 103.474 237.218 102.538C238.529 101.603 240.092 101.336 241.565 101.798C243.037 102.259 244.299 103.41 245.073 104.999C245.847 106.588 246.07 108.484 245.694 110.272L241.839 128.594Z" fill="#6C63FF"/>
<path d="M259.359 134.847L258.536 111.971C257.913 107.671 259.941 103.605 263.061 102.941C266.182 102.279 269.229 105.261 269.856 109.593L272.947 130.969L259.359 134.847Z" fill="#6C63FF"/>
<path d="M265.377 162.887C270.266 185.482 270.799 214.21 269.48 245.546L262.915 244.55L251.015 184.796L244.449 245.546L237.063 245.048C234.856 212.169 232.708 183.942 236.242 165.377L265.377 162.887Z" fill="#2F2E41"/>
<path d="M257.815 90.1797C255.935 92.61 252.443 91.3054 252.198 87.9852C252.179 87.7274 252.18 87.468 252.202 87.2105C252.329 85.7398 253.029 84.4046 252.861 82.8517C252.823 82.4652 252.705 82.0969 252.517 81.7817C251.018 79.3471 247.501 82.8706 246.087 80.6666C245.22 79.3152 246.239 77.1874 245.574 75.677C244.696 73.6834 242.095 74.6668 240.464 73.5751C238.649 72.3603 238.757 68.9814 239.952 66.9262C241.409 64.4197 243.963 63.0823 246.486 62.8895C249.009 62.6968 251.514 63.5243 253.869 64.638C256.545 65.9035 259.199 67.6524 260.845 70.5076C262.848 73.9798 263.041 78.6479 262.039 82.7081C261.43 85.1779 259.351 88.195 257.815 90.1797Z" fill="#2F2E41"/>
<path d="M344.682 258.753H41.727C41.5976 258.753 41.4737 258.69 41.3824 258.579C41.2911 258.468 41.2398 258.318 41.2398 258.161C41.2398 258.004 41.2911 257.853 41.3824 257.742C41.4737 257.631 41.5976 257.568 41.727 257.568H344.682C344.811 257.568 344.935 257.631 345.027 257.742C345.118 257.853 345.169 258.004 345.169 258.161C345.169 258.318 345.118 258.468 345.027 258.579C344.935 258.69 344.811 258.753 344.682 258.753Z" fill="#3F3D56"/>
<path d="M192.452 204.406H139.107C138.404 204.411 137.729 204.077 137.229 203.478C136.729 202.879 136.445 202.064 136.44 201.212V56.7234C136.445 55.8709 136.729 55.0558 137.229 54.457C137.729 53.8581 138.404 53.5244 139.107 53.529H192.452C193.154 53.5244 193.83 53.8581 194.33 54.457C194.83 55.0558 195.114 55.8709 195.119 56.7234V201.212C195.114 202.064 194.83 202.879 194.33 203.478C193.83 204.077 193.154 204.411 192.452 204.406Z" fill="white"/>
<path d="M195.119 100.281H136.44V101.277H195.119V100.281Z" fill="#CCCCCC"/>
<path d="M195.324 157.101H136.645V158.097H195.324V157.101Z" fill="#CCCCCC"/>
<path d="M155.726 53.529H154.905V204.904H155.726V53.529Z" fill="#CCCCCC"/>
<path d="M176.243 53.529H175.422V204.904H176.243V53.529Z" fill="#CCCCCC"/>
</g>
<defs>
<clipPath id="clip0_2_2">
<rect width="357" height="259" fill="white"/>
</clipPath>
</defs>
</svg>
